<svg width="101" height="25" viewBox="0 0 101 25" fill="none" xmlns="http://www.w3.org/2000/svg">
<g clip-path="url(#clip0_21_229)">
<path d="M7.05911 5.37537L1.24817 10.9337C0.210713 11.9261 -0.22106 13.3659 0.108767 14.7368L1.87184 19.1594L8.67226 12.6546C10.3274 11.0714 10.3274 8.50732 8.67226 6.92414L7.05911 5.37537Z" fill="#A476FF"/>
<path d="M5.61377 18.2474L11.4247 23.8058C12.4622 24.7981 13.9674 25.2111 15.4006 24.8956L20.0242 23.2092L13.2238 16.6986C11.5686 15.1154 8.88805 15.1154 7.23292 16.6986L5.61377 18.2474Z" fill="#A476FF"/>
<path d="M19.0649 19.6241L24.8759 14.0657C25.9133 13.0734 26.3451 11.6336 26.0153 10.2626L24.2522 5.84003L17.4518 12.3449C15.7967 13.928 15.7967 16.4921 17.4518 18.0753L19.0649 19.6241Z" fill="#A476FF"/>
<path d="M20.504 6.75203L14.6991 1.19367C13.6616 0.20131 12.1564 -0.211695 10.7232 0.103795L6.09961 1.79023L12.9 8.29506C14.5552 9.87825 17.2357 9.87825 18.8909 8.29506L20.504 6.75203Z" fill="#A476FF"/>
<path d="M69.8816 8.43274C68.4604 8.43274 67.303 8.85722 66.4035 9.49393V9.4882L66.1456 9.00062C66.0556 8.83427 65.8757 8.72528 65.6838 8.72528H62.5895C62.3016 8.72528 62.0737 8.949 62.0737 9.2186V23.06H66.4394V14.5762C66.4394 13.3085 67.4229 11.8458 69.234 11.8458C71.045 11.8458 71.8366 13.2741 71.8366 14.6049V23.06H76.1663V14.0313C76.1603 11.4672 74.1754 8.43274 69.8816 8.43274Z" fill="#110E3D"/>
<path d="M80.8437 6.9815C82.295 6.9815 83.3984 5.9203 83.3984 4.64687C83.3984 3.37344 82.289 2.25488 80.8437 2.25488C79.3985 2.25488 78.2891 3.31608 78.2891 4.64687C78.2891 5.89736 79.3385 6.9815 80.8437 6.9815Z" fill="#110E3D"/>
<path d="M82.511 8.71954H79.2008C78.9129 8.71954 78.6851 8.94325 78.6851 9.21286V22.5896C78.6851 22.865 78.9189 23.0829 79.2008 23.0829H82.511C82.7989 23.0829 83.0268 22.8592 83.0268 22.5896V9.21859C83.0328 8.94326 82.7989 8.71954 82.511 8.71954Z" fill="#110E3D"/>
<path d="M57.1562 6.9815C58.6075 6.9815 59.7109 5.9203 59.7109 4.64687C59.7109 3.37344 58.6015 2.25488 57.1562 2.25488C55.711 2.25488 54.6016 3.31608 54.6016 4.64687C54.6016 5.89736 55.651 6.9815 57.1562 6.9815Z" fill="#110E3D"/>
<path d="M58.8235 8.71954H55.5133C55.2254 8.71954 54.9976 8.94325 54.9976 9.21286V22.5896C54.9976 22.865 55.2314 23.0829 55.5133 23.0829H58.8235C59.1114 23.0829 59.3393 22.8592 59.3393 22.5896V9.21859C59.3453 8.94326 59.1114 8.71954 58.8235 8.71954Z" fill="#110E3D"/>
<path d="M100.489 8.69661H97.3949C97.191 8.69661 97.0051 8.81133 96.9212 8.98915L96.6573 9.55704C95.4699 8.85722 94.0727 8.45569 92.5794 8.45569C88.2737 8.45569 84.7896 11.7941 84.7896 15.907C84.7896 20.0198 88.2797 23.3698 92.5794 23.3698C94.0727 23.3698 95.4699 22.9682 96.6573 22.2684L96.9272 22.8134C97.0111 22.9854 97.197 23.0944 97.3949 23.0944H100.483C100.771 23.0944 100.999 22.8707 100.999 22.6011V9.19566C101.005 8.92032 100.771 8.69661 100.489 8.69661ZM96.5973 17.5418C96.5554 17.6221 96.5134 17.6967 96.4654 17.7712C96.4654 17.7712 96.4654 17.777 96.4594 17.777C96.4114 17.8516 96.3635 17.9204 96.3155 17.995L96.3095 18.0007C96.2615 18.0695 96.2075 18.1384 96.1476 18.2072L96.1416 18.2129C96.0876 18.276 96.0276 18.3449 95.9677 18.4022L95.9617 18.408C95.9017 18.4711 95.8417 18.5284 95.7758 18.5858L95.7698 18.5915C95.7398 18.6202 95.7098 18.6431 95.6798 18.6718L95.6738 18.6776C95.6378 18.7062 95.6078 18.7349 95.5719 18.7579L95.5659 18.7636C95.5359 18.7866 95.5059 18.8095 95.4699 18.8324C95.4659 18.8363 95.4619 18.8401 95.4579 18.8439C95.422 18.8669 95.386 18.8955 95.35 18.9185C95.35 18.9185 95.344 18.9185 95.344 18.9242C95.314 18.9472 95.278 18.9701 95.242 18.9873C95.236 18.9931 95.2301 18.9931 95.2241 18.9988C95.1881 19.0217 95.1521 19.0447 95.1161 19.0619C95.0801 19.0848 95.0442 19.102 95.0082 19.1192C95.0022 19.125 94.9962 19.125 94.9842 19.1307C94.9122 19.1709 94.8343 19.2053 94.7563 19.2397C94.7503 19.2454 94.7383 19.2454 94.7323 19.2512C94.6963 19.2684 94.6604 19.2856 94.6244 19.2971H94.6184C94.5824 19.3143 94.5404 19.3258 94.4984 19.343C94.4924 19.3487 94.4804 19.3487 94.4744 19.3544C94.4385 19.3659 94.4025 19.3774 94.3725 19.3889C94.3665 19.3889 94.3605 19.3946 94.3545 19.3946C94.3125 19.4061 94.2766 19.4175 94.2346 19.429C94.2286 19.429 94.2166 19.4347 94.2106 19.4347C94.1746 19.4462 94.1446 19.4519 94.1086 19.4634C94.1026 19.4634 94.0907 19.4692 94.0847 19.4692C94.0427 19.4806 94.0007 19.4864 93.9647 19.4978C93.9587 19.4978 93.9467 19.5036 93.9407 19.5036C93.9047 19.5093 93.8688 19.515 93.8388 19.5265C93.8268 19.5265 93.8208 19.5323 93.8088 19.5323C93.7668 19.538 93.7248 19.5437 93.6829 19.5495C93.6769 19.5495 93.6709 19.5495 93.6589 19.5552C93.6229 19.5609 93.5869 19.5667 93.5509 19.5667C93.5389 19.5667 93.5269 19.5667 93.5209 19.5724C93.479 19.5781 93.437 19.5781 93.395 19.5839H93.383C93.347 19.5839 93.3051 19.5896 93.2691 19.5896H93.1012C90.9363 19.5896 89.1792 17.9089 89.1792 15.8382C89.1792 13.7674 90.9363 12.0867 93.1012 12.0867H93.2691C93.3111 12.0867 93.347 12.0924 93.383 12.0924H93.395C93.437 12.0982 93.479 12.0982 93.5209 12.1039C93.5329 12.1039 93.5449 12.1039 93.5509 12.1096C93.5869 12.1154 93.6229 12.1154 93.6589 12.1211C93.6649 12.1211 93.6709 12.1211 93.6829 12.1268C93.7248 12.1326 93.7668 12.1383 93.8088 12.1441C93.8208 12.1441 93.8268 12.1498 93.8388 12.1498C93.8748 12.1555 93.9107 12.1613 93.9407 12.1727C93.9467 12.1727 93.9587 12.1785 93.9647 12.1785C94.0067 12.1899 94.0487 12.1957 94.0847 12.2072C94.0907 12.2072 94.1026 12.2129 94.1086 12.2129C94.1446 12.2244 94.1746 12.2301 94.2106 12.2416C94.2166 12.2416 94.2286 12.2473 94.2346 12.2473C94.2766 12.2588 94.3125 12.2702 94.3545 12.2817C94.3605 12.2817 94.3665 12.2875 94.3725 12.2875C94.4085 12.2989 94.4445 12.3104 94.4744 12.3219C94.4804 12.3276 94.4924 12.3276 94.4984 12.3333C94.5404 12.3506 94.5764 12.362 94.6184 12.3792H94.6244C94.6604 12.3964 94.6963 12.4079 94.7323 12.4251C94.7383 12.4309 94.7503 12.4309 94.7563 12.4366C94.8343 12.471 94.9062 12.5054 94.9842 12.5456C94.9902 12.5513 94.9962 12.5513 95.0082 12.5571C95.0442 12.5743 95.0801 12.5972 95.1161 12.6144C95.1521 12.6374 95.1881 12.6603 95.2241 12.6775C95.2301 12.6833 95.236 12.6833 95.242 12.689C95.278 12.7119 95.308 12.7291 95.344 12.7521C95.344 12.7521 95.35 12.7521 95.35 12.7578C95.386 12.7808 95.422 12.8037 95.4579 12.8324C95.4619 12.8362 95.4659 12.84 95.4699 12.8439C95.4999 12.8668 95.5359 12.8898 95.5659 12.9127L95.5719 12.9184C95.6078 12.9471 95.6378 12.9701 95.6738 12.9987L95.6798 13.0045C95.7098 13.0332 95.7398 13.0561 95.7698 13.0848L95.7758 13.0905C95.8417 13.1479 95.9017 13.2052 95.9617 13.2683L95.9677 13.2741C96.0276 13.3372 96.0876 13.4003 96.1416 13.4634L96.1476 13.4691C96.2015 13.5379 96.2555 13.601 96.3095 13.6756L96.3155 13.6813C96.3635 13.7502 96.4174 13.8248 96.4594 13.8993C96.4594 13.8993 96.4594 13.9051 96.4654 13.9051C96.5134 13.9796 96.5554 14.0542 96.5973 14.1345C96.8612 14.6393 97.0111 15.2129 97.0111 15.8152C97.0111 16.4634 96.8612 17.037 96.5973 17.5418Z" fill="#110E3D"/>
<path d="M52.3168 11.7425C52.3168 11.4729 52.089 11.2492 51.8011 11.2492H43.5914C43.3096 11.2492 43.0757 11.4672 43.0757 11.7425V14.8573C43.0757 15.1269 43.3036 15.3506 43.5914 15.3506H47.9691V18.6432C46.9317 19.0275 45.8942 19.1365 44.8088 19.1365C40.623 19.1365 37.8045 16.515 37.8045 12.8209C37.8045 8.74824 40.7249 6.50539 44.5509 6.50539C46.302 6.50539 47.9092 6.91266 49.1505 7.61248C49.5883 7.85913 50.152 7.6641 50.3259 7.20521L51.3813 4.38874C51.4653 4.16503 51.3693 3.92411 51.1594 3.79792C49.3964 2.77114 47.0936 2.26062 44.1911 2.26062C37.6606 2.26062 32.8931 6.7119 32.8931 12.8267C32.8931 18.9414 37.4387 23.3927 44.5869 23.3927C47.2615 23.3927 49.7262 22.9051 51.5073 22.0619C51.999 21.8325 52.3048 21.3506 52.3048 20.8286V15.3678V11.7425H52.3168Z" fill="#110E3D"/>
</g>
<defs>
<clipPath id="clip0_21_229">
<rect width="101" height="25" fill="white"/>
</clipPath>
</defs>
</svg>
